<?xml version="1.0" standalone="no"?>
<!DOCTYPE svg PUBLIC "-//W3C//DTD SVG 20010904//EN"
 "http://www.w3.org/TR/2001/REC-SVG-20010904/DTD/svg10.dtd">
<svg version="1.0" xmlns="http://www.w3.org/2000/svg"
 width="1000.000000pt" height="1000.000000pt" viewBox="0 0 1000.000000 1000.000000"
 preserveAspectRatio="xMidYMid meet">
<metadata>
Created by potrace 1.14, written by Peter Selinger 2001-2017
</metadata>
<g transform="translate(0.000000,1000.000000) scale(0.100000,-0.100000)"
fill="#000000" stroke="none">
<path d="M0 5000 l0 -5000 5000 0 5000 0 0 2290 0 2290 -1220 0 c-1195 0
-1220 0 -1230 -19 -7 -13 -10 -561 -10 -1700 0 -1651 0 -1680 -19 -1691 -30
-15 -1643 -14 -1659 2 -9 9 -12 397 -12 1684 0 1507 -2 1674 -16 1688 -14 14
-104 16 -838 16 -626 0 -825 -3 -834 -12 -9 -9 -12 -398 -12 -1688 0 -1290 -3
-1679 -12 -1688 -17 -17 -1645 -17 -1683 0 l-25 11 0 3004 c0 1654 4 3003 9
3003 4 0 13 48 20 108 12 110 43 260 66 322 65 178 128 313 161 351 8 8 14 19
14 22 0 12 70 108 136 187 149 179 339 334 543 442 141 76 238 110 446 156
l120 27 1055 0 1055 0 120 -27 c298 -66 531 -179 745 -363 152 -130 335 -352
412 -500 14 -27 33 -63 41 -80 40 -76 61 -134 112 -303 9 -29 24 -116 35 -194
19 -132 20 -201 20 -1013 0 -664 3 -874 12 -883 9 -9 296 -12 1230 -12 l1218
0 0 2285 0 2285 -5000 0 -5000 0 0 -5000z"/>
<path d="M4788 7935 c-86 -22 -193 -71 -265 -120 -106 -71 -271 -269 -298
-356 -4 -13 -12 -29 -17 -36 -6 -7 -19 -50 -31 -95 -20 -80 -20 -112 -24 -996
l-4 -912 26 -10 c37 -14 1630 -14 1656 0 19 10 19 31 19 868 0 695 -3 876 -15
957 -33 231 -141 411 -336 561 -188 144 -476 201 -711 139z"/>
</g>
</svg>
